<svg width="20" height="20" viewBox="0 0 20 20" fill="none" xmlns="http://www.w3.org/2000/svg">
<path fill-rule="evenodd" clip-rule="evenodd" d="M17.3783 10.7475L10.0242 3.36914L2.6225 10.7466C2.58265 10.785 2.55085 10.831 2.52894 10.8818C2.50704 10.9326 2.49547 10.9872 2.49491 11.0425C2.49435 11.0979 2.50482 11.1527 2.5257 11.204C2.54657 11.2552 2.57745 11.3018 2.61651 11.3409C2.65558 11.3801 2.70205 11.4111 2.75323 11.4321C2.8044 11.4532 2.85925 11.4638 2.91457 11.4634C2.9699 11.463 3.02459 11.4516 3.07545 11.4298C3.12632 11.4081 3.17234 11.3764 3.21083 11.3366L4.16667 10.3841V16.25C4.16667 16.3605 4.21056 16.4665 4.2887 16.5446C4.36684 16.6227 4.47283 16.6666 4.58333 16.6666H8.33333C8.44384 16.6666 8.54982 16.6227 8.62796 16.5446C8.7061 16.4665 8.75 16.3605 8.75 16.25V12.6083C8.75 12.4978 8.7939 12.3918 8.87204 12.3137C8.95018 12.2355 9.05616 12.1916 9.16667 12.1916H10.8333C10.9438 12.1916 11.0498 12.2355 11.128 12.3137C11.2061 12.3918 11.25 12.4978 11.25 12.6083V16.25C11.25 16.3605 11.2939 16.4665 11.372 16.5446C11.4502 16.6227 11.5562 16.6666 11.6667 16.6666H15.4167C15.5272 16.6666 15.6332 16.6227 15.7113 16.5446C15.7894 16.4665 15.8333 16.3605 15.8333 16.25V10.3779L16.7883 11.3362C16.827 11.375 16.8729 11.4057 16.9234 11.4267C16.974 11.4477 17.0282 11.4585 17.0829 11.4586C17.1376 11.4587 17.1918 11.4479 17.2424 11.427C17.293 11.4062 17.339 11.3755 17.3777 11.3368C17.4164 11.2982 17.4472 11.2523 17.4682 11.2017C17.4892 11.1512 17.5 11.097 17.5001 11.0423C17.5001 10.9876 17.4894 10.9334 17.4685 10.8828C17.4476 10.8322 17.417 10.7862 17.3783 10.7475ZM15 9.54164L10.0221 4.54747L5 9.55331V15.8333H7.91667V12.6083C7.91667 12.2768 8.04836 11.9588 8.28278 11.7244C8.5172 11.49 8.83514 11.3583 9.16667 11.3583H10.8333C11.1649 11.3583 11.4828 11.49 11.7172 11.7244C11.9516 11.9588 12.0833 12.2768 12.0833 12.6083V15.8333H15V9.54164Z" fill="#333333"/>
</svg>
